<?xml version="1.0" encoding="UTF-8" standalone="no"?>
<svg
   viewBox="0 0 448 512"
   version="1.1"
   id="svg4"
   sodipodi:docname="notifications.svg"
   inkscape:version="1.2.2 (b0a8486541, 2022-12-01)"
   xmlns:inkscape="http://www.inkscape.org/namespaces/inkscape"
   xmlns:sodipodi="http://sodipodi.sourceforge.net/DTD/sodipodi-0.dtd"
   xmlns="http://www.w3.org/2000/svg"
   xmlns:svg="http://www.w3.org/2000/svg">
  <defs
     id="defs8" />
  <sodipodi:namedview
     id="namedview6"
     pagecolor="#ffffff"
     bordercolor="#000000"
     borderopacity="0.25"
     inkscape:showpageshadow="2"
     inkscape:pageopacity="0.0"
     inkscape:pagecheckerboard="0"
     inkscape:deskcolor="#d1d1d1"
     showgrid="false"
     inkscape:zoom="2.0058594"
     inkscape:cx="217.11392"
     inkscape:cy="256"
     inkscape:window-width="2560"
     inkscape:window-height="1368"
     inkscape:window-x="2560"
     inkscape:window-y="0"
     inkscape:window-maximized="1"
     inkscape:current-layer="svg4" />
  <!--! Font Awesome Free 6.5.1 by @fontawesome - https://fontawesome.com License - https://fontawesome.com/license/free (Icons: CC BY 4.0, Fonts: SIL OFL 1.1, Code: MIT License) Copyright 2023 Fonticons, Inc. -->
  <path
     d="M64 32C64 14.3 49.7 0 32 0S0 14.3 0 32V64 368 480c0 17.7 14.3 32 32 32s32-14.3 32-32V352l64.3-16.1c41.1-10.3 84.6-5.5 122.5 13.4c44.2 22.1 95.5 24.8 141.7 7.4l34.7-13c12.5-4.7 20.8-16.6 20.8-30V66.1c0-23-24.2-38-44.8-27.7l-9.6 4.8c-46.3 23.2-100.8 23.2-147.1 0c-35.1-17.6-75.4-22-113.5-12.5L64 48V32z"
     id="path2" />
  <path
     style="fill:#0066ff;stroke-width:3.25786;stroke-linejoin:round"
     d="M 28.543706,511.43446 C 16.498699,510.18542 6.2746123,501.95513 2.0240316,490.08629 L 0.49853944,485.82668 V 256 26.17332 L 1.8583542,22.185005 C 3.4926412,17.391666 6.1979669,13.129577 9.9402881,9.452371 25.116637,-5.4599163 50.214308,-1.4444285 60.054898,17.47043 c 3.024639,5.813742 3.492982,8.56598 3.501512,20.576798 0.0068,9.65016 0.06858,10.359808 0.879812,10.114883 0.479844,-0.144873 17.052706,-4.303798 36.828578,-9.242057 48.0541,-11.999652 52.30659,-12.742971 72.47619,-12.668572 25.50883,0.09409 46.8883,5.056618 71.04187,16.489982 4.93554,2.336293 11.36515,5.21185 14.288,6.390128 37.86677,15.265026 82.15982,15.491906 120.31765,0.616307 3.56456,-1.389622 11.01672,-4.718096 16.56037,-7.39661 5.54364,-2.678514 11.26438,-5.281501 12.71275,-5.784416 3.71875,-1.291252 13.01513,-1.28243 16.84178,0.01598 8.71568,2.957306 15.38882,8.557694 18.84324,15.814052 3.61568,7.595104 3.34176,-3.679087 3.34176,137.546615 0,139.90658 0.21756,129.91037 -2.97839,136.84908 -3.04198,6.60445 -8.32973,12.15728 -14.39879,15.12063 -4.65231,2.27158 -45.18218,17.22386 -51.42126,18.97032 -27.44443,7.68233 -54.71074,8.92994 -81.76047,3.74105 -16.00128,-3.06949 -29.81664,-7.75849 -46.8627,-15.90544 -20.9114,-9.99433 -41.25757,-15.69365 -63.06524,-17.66567 -8.18712,-0.74034 -25.51666,-0.63378 -33.42422,0.20552 -12.1859,1.29341 -17.27869,2.38115 -53.820183,11.49515 l -36.144109,9.01488 -0.257541,67.52736 c -0.283724,74.39332 0.004,68.43292 -3.643655,75.50399 -5.837727,11.31684 -18.400641,17.97878 -31.368146,16.63407 z"
     id="path313" />
</svg>
