<?xml version="1.0" encoding="UTF-8" standalone="no"?>
<svg
   viewBox="0 0 448 512"
   version="1.1"
   id="svg4"
   sodipodi:docname="square-unchecked.svg"
   inkscape:version="1.2.2 (b0a8486541, 2022-12-01)"
   xmlns:inkscape="http://www.inkscape.org/namespaces/inkscape"
   xmlns:sodipodi="http://sodipodi.sourceforge.net/DTD/sodipodi-0.dtd"
   xmlns="http://www.w3.org/2000/svg"
   xmlns:svg="http://www.w3.org/2000/svg">
  <defs
     id="defs8" />
  <sodipodi:namedview
     id="namedview6"
     pagecolor="#ffffff"
     bordercolor="#000000"
     borderopacity="0.25"
     inkscape:showpageshadow="2"
     inkscape:pageopacity="0.0"
     inkscape:pagecheckerboard="0"
     inkscape:deskcolor="#d1d1d1"
     showgrid="false"
     inkscape:zoom="2.0058594"
     inkscape:cx="461.89679"
     inkscape:cy="256"
     inkscape:window-width="2560"
     inkscape:window-height="1368"
     inkscape:window-x="0"
     inkscape:window-y="0"
     inkscape:window-maximized="1"
     inkscape:current-layer="svg4" />
  <path
     d="M -3.5097371e-6,105.87108 C -3.5097371e-6,70.571075 28.699996,41.871075 63.999996,41.871075 H 384.00002 c 35.30001,0 64.00001,28.7 64.00001,64.000005 v 320 c 0,35.3 -28.7,64 -64.00001,64 H 63.999996 c -35.3,0 -63.9999995097371,-28.7 -63.9999995097371,-64 z"
     id="path10116"
     style="fill:#008000;fill-opacity:1" />
  <path
     d="m 61.307905,90.768457 c -8.8,0 -16,7.2 -16,15.999993 v 320 c 0,8.8 7.2,16 16,16 H 381.30791 c 8.8,0 16,-7.2 16,-16 v -320 c 0,-8.799993 -7.2,-15.999993 -16,-15.999993 z"
     id="path2"
     style="fill:#ffffff" />
  <!--! Font Awesome Free 6.5.1 by @fontawesome - https://fontawesome.com License - https://fontawesome.com/license/free (Icons: CC BY 4.0, Fonts: SIL OFL 1.1, Code: MIT License) Copyright 2023 Fonticons, Inc. -->
</svg>
