<?xml version="1.0" encoding="UTF-8" standalone="no"?>
<svg
   viewBox="0 0 448 512"
   version="1.1"
   id="svg4"
   sodipodi:docname="weekly_review.svg"
   xml:space="preserve"
   inkscape:version="1.2.2 (b0a8486541, 2022-12-01)"
   xmlns:inkscape="http://www.inkscape.org/namespaces/inkscape"
   xmlns:sodipodi="http://sodipodi.sourceforge.net/DTD/sodipodi-0.dtd"
   xmlns="http://www.w3.org/2000/svg"
   xmlns:svg="http://www.w3.org/2000/svg"><defs
     id="defs8" /><sodipodi:namedview
     id="namedview6"
     pagecolor="#ffffff"
     bordercolor="#000000"
     borderopacity="0.25"
     inkscape:showpageshadow="2"
     inkscape:pageopacity="0.0"
     inkscape:pagecheckerboard="0"
     inkscape:deskcolor="#d1d1d1"
     showgrid="false"
     inkscape:zoom="2.0058594"
     inkscape:cx="167.01071"
     inkscape:cy="268.96203"
     inkscape:window-width="2560"
     inkscape:window-height="1412"
     inkscape:window-x="2560"
     inkscape:window-y="0"
     inkscape:window-maximized="1"
     inkscape:current-layer="svg4" /><!--! Font Awesome Free 6.5.1 by @fontawesome - https://fontawesome.com License - https://fontawesome.com/license/free (Icons: CC BY 4.0, Fonts: SIL OFL 1.1, Code: MIT License) Copyright 2023 Fonticons, Inc. --><path
     d="m 128,0 c 17.7,0 32,14.3 32,32 V 64 H 288 V 32 c 0,-17.7 14.3,-32 32,-32 17.7,0 32,14.3 32,32 v 32 h 48 c 26.5,0 48,21.5 48,48 v 48 H 0 V 112 C 0,85.5 21.5,64 48,64 H 96 V 32 C 96,14.3 110.3,0 128,0 Z M 0,192 h 448 v 272 c 0,26.5 -21.5,48 -48,48 H 48 C 21.5,512 0,490.5 0,464 Z m 85.384129,259.62686 c -9.39722,12.70917 -6.128774,50.99744 -6.128774,50.99744 l -0.897273,1.18406 c -2.754764,3.63525 49.231098,-2.14377 54.586778,-9.12637 L 413.76594,128.55462 c 5.35568,-6.9826 -0.32164,-13.37239 -7.33167,-18.69213 L 374.12902,85.346823 c -7.01003,-5.319735 -13.46029,-6.025768 -18.69219,1.050055 z"
     id="path2"
     sodipodi:nodetypes="ssccssscssccsscssccsssscscsssssss" /><g
     inkscape:groupmode="layer"
     id="layer2"
     inkscape:label="pen"
     transform="rotate(0.56966606,315.82473,259.04107)"
     style="display:none"><polygon
       points="8,12 18,2 22,6 12,16 8,16 "
       id="polygon331-7"
       transform="matrix(20.212564,-0.40198178,0.45600362,22.928906,17.091842,-58.241459)"
       style="display:inline;fill:none;stroke:#000000;stroke-width:2;stroke-linecap:round;stroke-linejoin:round" /></g><g
     inkscape:groupmode="layer"
     id="layer4"
     inkscape:label="scratch"
     transform="matrix(20.216561,0,0,22.93344,-5216.3892,-4525.6302)"
     style="display:none"><polygon
       points="8,12 18,2 22,6 12,16 8,16 "
       id="polygon331"
       transform="translate(257.21132,196.38946)"
       style="fill:none;stroke:#000000;stroke-width:2;stroke-linecap:round;stroke-linejoin:round" /></g></svg>
